<svg width="19" height="20" viewBox="0 0 19 20" fill="none" xmlns="http://www.w3.org/2000/svg"><path d="M1.16667 11.3923H7.41667C7.69293 11.3923 7.95788 11.2825 8.15323 11.0872C8.34859 10.8918 8.45833 10.6269 8.45833 10.3506V2.01725C8.45833 1.74099 8.34859 1.47603 8.15323 1.28068C7.95788 1.08533 7.69293 0.975586 7.41667 0.975586H1.16667C0.890399 0.975586 0.625447 1.08533 0.430097 1.28068C0.234747 1.47603 0.125 1.74099 0.125 2.01725V10.3506C0.125 10.6269 0.234747 10.8918 0.430097 11.0872C0.625447 11.2825 0.890399 11.3923 1.16667 11.3923ZM0.125 18.6839C0.125 18.9602 0.234747 19.2251 0.430097 19.4205C0.625447 19.6158 0.890399 19.7256 1.16667 19.7256H7.41667C7.69293 19.7256 7.95788 19.6158 8.15323 19.4205C8.34859 19.2251 8.45833 18.9602 8.45833 18.6839V14.5173C8.45833 14.241 8.34859 13.976 8.15323 13.7807C7.95788 13.5853 7.69293 13.4756 7.41667 13.4756H1.16667C0.890399 13.4756 0.625447 13.5853 0.430097 13.7807C0.234747 13.976 0.125 14.241 0.125 14.5173V18.6839ZM10.5417 18.6839C10.5417 18.9602 10.6514 19.2251 10.8468 19.4205C11.0421 19.6158 11.3071 19.7256 11.5833 19.7256H17.8333C18.1096 19.7256 18.3745 19.6158 18.5699 19.4205C18.7653 19.2251 18.875 18.9602 18.875 18.6839V11.3923C18.875 11.116 18.7653 10.851 18.5699 10.6557C18.3745 10.4603 18.1096 10.3506 17.8333 10.3506H11.5833C11.3071 10.3506 11.0421 10.4603 10.8468 10.6557C10.6514 10.851 10.5417 11.116 10.5417 11.3923V18.6839ZM11.5833 8.26725H17.8333C18.1096 8.26725 18.3745 8.15751 18.5699 7.96215C18.7653 7.7668 18.875 7.50185 18.875 7.22559V2.01725C18.875 1.74099 18.7653 1.47603 18.5699 1.28068C18.3745 1.08533 18.1096 0.975586 17.8333 0.975586H11.5833C11.3071 0.975586 11.0421 1.08533 10.8468 1.28068C10.6514 1.47603 10.5417 1.74099 10.5417 2.01725V7.22559C10.5417 7.50185 10.6514 7.7668 10.8468 7.96215C11.0421 8.15751 11.3071 8.26725 11.5833 8.26725Z" fill="#C1C6DB"/></svg>