<svg width="20" height="20" viewBox="0 0 20 20" fill="none" xmlns="http://www.w3.org/2000/svg">
<path d="M6.5625 13.4375L3.125 16.875" stroke="#919294" stroke-width="2" stroke-linecap="round" stroke-linejoin="round"/>
<path d="M12.2602 1.55233L6.90628 6.90624C6.90628 6.90624 4.52581 5.7117 1.97347 7.7742C1.89836 7.83498 1.83691 7.9109 1.79312 7.99702C1.74933 8.08314 1.72418 8.17753 1.71932 8.27402C1.71445 8.37051 1.72998 8.46694 1.76489 8.55703C1.79979 8.64712 1.85329 8.72884 1.9219 8.79686L11.186 18.0609C11.2553 18.1315 11.3391 18.1862 11.4315 18.2215C11.524 18.2567 11.6229 18.2715 11.7217 18.265C11.8204 18.2585 11.9165 18.2307 12.0035 18.1837C12.0905 18.1366 12.1664 18.0712 12.2258 17.9922C12.9477 17.0383 14.0821 15.0617 13.0938 13.0937L18.4477 7.73983C18.5126 7.67586 18.5642 7.59961 18.5994 7.51551C18.6347 7.43141 18.6528 7.34116 18.6528 7.24999C18.6528 7.15882 18.6347 7.06856 18.5994 6.98446C18.5642 6.90037 18.5126 6.82411 18.4477 6.76014L13.2399 1.55233C13.1759 1.48737 13.0996 1.43578 13.0156 1.40057C12.9315 1.36536 12.8412 1.34723 12.75 1.34723C12.6589 1.34723 12.5686 1.36536 12.4845 1.40057C12.4004 1.43578 12.3242 1.48737 12.2602 1.55233Z" stroke="#919294" stroke-width="2" stroke-linecap="round" stroke-linejoin="round"/>
</svg>
