<svg width="60" height="60" viewBox="0 0 60 60" fill="none" xmlns="http://www.w3.org/2000/svg">
<path d="M59.5 29.9999C59.5 46.2922 46.2924 59.4998 30 59.4998C13.7076 59.4998 0.5 46.2922 0.5 29.9999C0.5 13.7076 13.7076 0.5 30 0.5C46.2924 0.5 59.5 13.7076 59.5 29.9999Z" fill="#58B0E0" stroke="#262835"/>
<path d="M23.0779 52.2045V38.058L37.5216 38.1905V52.338L23.0779 52.2045Z" fill="#302E33" stroke="#262835"/>
<path d="M22.0878 41.9123C22.1571 43.9453 22.5214 46.1408 23.5186 47.9186C24.6643 49.9611 26.6298 51.4179 29.7897 51.4659L29.7898 51.4659C33.6106 51.5229 35.8503 50.1277 37.0946 48.0377C38.167 46.2365 38.4581 43.9838 38.5109 41.9095L50.0568 47.5804L51.3267 50.3797C48.6151 53.2245 45.3601 55.498 41.7533 57.0647C38.0448 58.6755 34.044 59.5045 30.0007 59.4999H30.0002C28.7771 59.4998 27.5551 59.4244 26.3412 59.2742C22.6116 58.7392 19.003 57.5612 15.676 55.7927C12.9638 54.2828 10.5063 52.3565 8.39296 50.0846L9.44113 47.554L22.0878 41.9123Z" fill="#857A6E" stroke="#262835"/>
<path d="M30.5508 50.0589C27.2109 45.2567 21.75 44.4018 19.7673 44.0914C19.7069 44.0819 19.6498 44.073 19.596 44.0644L19.5959 44.0644C16.9941 43.6516 13.5545 42.6292 11.5019 41.1058C10.4759 40.3442 9.88117 39.5215 9.80424 38.662C9.72857 37.8166 10.1401 36.7608 11.5389 35.4917C16.0108 31.4356 17.9405 26.9212 19.5546 23.1451C19.8616 22.4269 20.1572 21.7354 20.4567 21.0789C21.4006 19.0096 22.3676 17.3142 23.8085 16.126C25.2325 14.9517 27.1728 14.2311 30.1477 14.2311C33.3384 14.2311 35.3906 14.9559 36.8622 16.131C38.347 17.3166 39.302 19.0069 40.2076 21.0722C40.5091 21.7595 40.8033 22.4858 41.1095 23.2414C42.6301 26.994 44.4438 31.47 48.8778 35.4917C50.2769 36.7608 50.6886 37.8167 50.613 38.6621C50.5362 39.5216 49.9415 40.3442 48.9154 41.1058C46.8664 42.6265 43.4349 43.6479 40.8338 44.0622C38.6641 44.2823 36.5729 44.9931 34.7185 46.1409C33.0786 47.1559 31.6621 48.489 30.5508 50.0589Z" fill="#302E33" stroke="#262835"/>
<path opacity="0.18" d="M30.4732 46.548L30.4732 46.548C27.0382 46.4059 24.165 44.5817 23.2246 41.5242L38.1196 41.5215C37.5761 43.082 36.7254 44.3121 35.5883 45.1633C34.3029 46.1254 32.6079 46.6364 30.4732 46.548Z" fill="black" stroke="#262835"/>
<path d="M30.2224 8.6864C35.226 8.6864 38.4285 10.746 40.2848 13.7962C42.1606 16.8782 42.6975 21.0337 42.202 25.2474C41.7072 29.4557 40.1893 33.6565 38.0351 36.7923C35.8717 39.9413 33.1361 41.9252 30.2224 41.9252C27.4923 41.9252 24.8435 39.9527 22.7065 36.7952C20.5823 33.6566 19.0423 29.4526 18.5042 25.2424C17.9653 21.026 18.4392 16.871 20.2614 13.7908C22.0633 10.7451 25.2193 8.6864 30.2224 8.6864Z" fill="#FFE8BE" stroke="#262835"/>
<path d="M17.4053 24.2776C17.5842 26.1309 17.9269 27.9645 18.4291 29.7569C18.3608 29.6819 18.2918 29.5991 18.2227 29.5087C17.8104 28.9702 17.4366 28.2194 17.2037 27.4206C16.97 26.6185 16.8913 25.8129 17.0226 25.1573C17.0919 24.8115 17.2166 24.5154 17.4053 24.2776Z" fill="#F9DCA4" stroke="#262835"/>
<path d="M42.2567 29.7564C42.7586 27.964 43.1009 26.1305 43.2797 24.2774C43.4684 24.5152 43.5931 24.8112 43.6623 25.1569C43.7937 25.8125 43.7151 26.6181 43.4813 27.4203C43.2485 28.2192 42.8748 28.9701 42.4626 29.5087C42.3937 29.5988 42.3248 29.6814 42.2567 29.7564Z" fill="#F9DCA4" stroke="#262835"/>
<path d="M45.1267 17.9117C44.561 12.7948 40.3824 8.93721 35.6299 7.07787C32.9761 6.03962 30.1999 5.65202 27.8736 6.00895C25.5508 6.36535 23.7307 7.44993 22.8461 9.31319L45.1267 17.9117ZM45.1267 17.9117C44.9549 17.6526 44.775 17.3987 44.5872 17.1506L43.7104 15.9925L43.6886 17.4448V17.4448V17.4449L43.6886 17.4452L43.6885 17.4474L43.6884 17.4567L43.6875 17.4954C43.6867 17.5298 43.6853 17.5812 43.6831 17.6476C43.6786 17.7804 43.6708 17.9732 43.6573 18.211C43.6303 18.6871 43.5807 19.3405 43.4908 20.051C43.4007 20.763 43.2711 21.5238 43.0861 22.2173C42.9224 22.8308 42.7225 23.3641 42.4858 23.7609C42.3104 23.7887 42.0417 23.8147 41.6813 23.8271C41.1831 23.8442 40.5426 23.8346 39.7978 23.7799C38.3077 23.6705 36.4154 23.382 34.4247 22.777C30.4378 21.5654 26.1136 19.1041 23.7734 14.3285L23.5399 13.852L23.078 14.1134C19.6699 16.0429 18.369 19.6811 18.0997 22.9515C16.3429 18.9861 16.5661 15.6266 17.6662 13.7359L17.6662 13.7359C18.6055 12.1216 19.7265 11.2829 20.665 10.746C20.983 10.5641 21.2616 10.4259 21.5227 10.2964C21.6656 10.2255 21.8032 10.1573 21.9391 10.0859C22.1185 9.99168 22.2958 9.89074 22.446 9.7773C22.5949 9.66476 22.7499 9.51589 22.846 9.31342L45.1267 17.9117Z" fill="#969696" stroke="#262835"/>
<path d="M30.247 44.6874L30.247 44.6873L30.2388 44.6874C29.1014 44.6968 25.45 43.7896 22.4393 40.2465C19.9699 37.3404 17.9022 32.6216 18.0732 25.0983C18.0752 25.1115 18.0772 25.1246 18.0792 25.1377C18.2885 26.525 18.5641 28.0104 18.9203 29.3305C19.2722 30.6352 19.7177 31.8371 20.2924 32.6139C20.6383 33.0815 20.9871 33.4922 21.3401 33.8136C21.6905 34.1325 22.0699 34.3865 22.4793 34.5036C22.9058 34.6256 23.3406 34.5911 23.7561 34.372C24.1554 34.1614 24.5051 33.7974 24.821 33.3153C25.3783 32.4669 26.2565 31.7012 27.2012 31.3497C28.1243 31.0063 29.0871 31.0602 29.9395 31.792L30.3024 32.1035L30.6297 31.7549C31.2872 31.0547 32.2247 30.9729 33.2315 31.3358C34.2444 31.701 35.2126 32.4876 35.7537 33.3146L35.7539 33.3149C36.0699 33.7971 36.4199 34.1611 36.8194 34.3718C37.2349 34.5908 37.6698 34.6254 38.0965 34.5036C38.5062 34.3867 38.8859 34.1329 39.2365 33.814C39.5898 33.4926 39.9387 33.0818 40.2847 32.6139C40.8599 31.8365 41.2938 30.6542 41.629 29.3776C41.9638 28.1028 42.2143 26.6769 42.4 25.3438C42.7852 33.5288 40.696 38.2508 38.1783 40.9656C35.1678 44.2118 31.4453 44.6973 30.247 44.6874Z" fill="#969696" stroke="#262835"/>
<path d="M30.1847 34.1967C31.4466 34.3163 32.6418 34.7973 33.6301 35.5746C33.4976 35.6152 33.3464 35.6576 33.1771 35.7002C32.5835 35.8494 31.8241 35.9869 30.9924 36.0579C29.5597 36.1803 27.9718 36.1002 26.6515 35.593C27.6569 34.7847 28.8877 34.2949 30.1847 34.1967Z" fill="#FFE8BE" stroke="#262835"/>
<path d="M29.9554 50.9648C26.8906 46.2249 21.6066 45.3932 19.5869 45.0753C19.5355 45.0673 19.4863 45.0595 19.4392 45.052C19.4392 45.052 19.4391 45.052 19.4391 45.052L19.5175 44.5582L29.9554 50.9648ZM29.9554 50.9648L29.6396 51.466H30.5457H30.5467H31.438L31.1367 50.9727L29.9554 50.9648ZM29.7313 51.9051C29.0495 51.3427 27.9751 50.5064 26.1405 49.4034L26.1003 49.3784C23.6007 47.8223 20.8788 46.6561 18.028 45.9197L18.0049 45.9137L17.9813 45.91C17.7064 45.8664 17.421 45.823 17.1276 45.7784C14.8951 45.4391 12.1993 45.0294 10.1477 43.9121C9.004 43.2892 8.09995 42.465 7.59182 41.3414C7.08431 40.2193 6.94263 38.7341 7.44516 36.7334L6.96022 36.6116L7.44516 36.7334C9.79833 27.3624 12.6179 19.1696 16.3488 13.3504C20.0732 7.54125 24.6518 4.17227 30.5337 4.25719L30.5337 4.25719C36.5213 4.34302 41.0228 8.01449 44.6305 13.9463C48.2423 19.8849 50.8986 27.9991 53.203 36.763L53.203 36.7631C53.6378 38.4157 53.4601 39.7317 52.9189 40.7983C52.3721 41.8762 51.4292 42.7478 50.2536 43.454C47.8909 44.8732 44.7192 45.5474 42.4355 45.909L42.424 45.9108L42.4126 45.9132C39.6328 46.4873 36.9982 47.6186 34.6677 49.2388C32.9526 50.4127 31.9765 51.2941 31.3626 51.8864C31.2434 52.0014 31.1433 52.1 31.0566 52.1853C30.9117 52.328 30.8044 52.4336 30.7081 52.5174C30.659 52.5601 30.6246 52.5859 30.6023 52.6011C30.5761 52.5864 30.5332 52.5596 30.469 52.5119C30.3585 52.4296 30.2318 52.3233 30.0612 52.1801C29.9664 52.1005 29.858 52.0096 29.7313 51.9051Z" fill="#7D7062" stroke="#262835"/>
<path d="M33.0081 51.9785C32.1777 52.902 31.4033 53.9747 30.8458 55.1787C30.2857 54.0648 29.5165 53.0583 28.6958 52.1835C29.4855 52.8615 29.9758 53.5152 30.3415 54.1624L30.839 55.0428L31.2366 54.113C31.5266 53.4347 32.0978 52.7617 32.8355 52.1245C32.8923 52.0754 32.9498 52.0268 33.0081 51.9785Z" fill="#302E33" stroke="#262835"/>
</svg>
