<svg width="14" height="22" viewBox="0 0 14 22" fill="none" xmlns="http://www.w3.org/2000/svg">
<path d="M4.41402 19.684H10.0234V21.7673H4.41402V19.684ZM11.8053 13.134C12.7683 11.8777 13.763 10.5788 13.763 8.22563C13.763 4.20584 10.8265 0.93396 7.21871 0.93396C3.61095 0.93396 0.674438 4.20584 0.674438 8.22563C0.674438 10.6058 1.67197 11.9006 2.63865 13.1527C2.97335 13.5881 3.32019 14.0392 3.65208 14.5579C3.78671 14.7725 4.00734 15.5954 4.20461 16.559H3.46417V18.6423H10.9733V16.559H10.2347C10.4338 15.5933 10.6554 14.7683 10.7891 14.5538C11.1182 14.0298 11.4678 13.5746 11.8053 13.134Z" fill="#C1C6DB"/>
</svg>
