<svg width="20" height="21" viewBox="0 0 20 21" fill="none" xmlns="http://www.w3.org/2000/svg">
<path d="M16.7792 0.946472L19.9042 4.07147L17.5219 6.45481L14.3969 3.32981L16.7792 0.946472ZM5.33337 15.5173H8.45837L16.049 7.92668L12.924 4.80168L5.33337 12.3923V15.5173Z" fill="#C1C6DB"/>
<path d="M16.7917 18.6423H5.49792C5.47083 18.6423 5.44271 18.6527 5.41562 18.6527C5.38125 18.6527 5.34687 18.6434 5.31146 18.6423H2.20833V4.05898H9.34062L11.424 1.97565H2.20833C1.05937 1.97565 0.125 2.90898 0.125 4.05898V18.6423C0.125 19.7923 1.05937 20.7256 2.20833 20.7256H16.7917C17.3442 20.7256 17.8741 20.5062 18.2648 20.1155C18.6555 19.7248 18.875 19.1948 18.875 18.6423V9.61315L16.7917 11.6965V18.6423Z" fill="#C1C6DB"/>
</svg>
