<svg width="29" height="29" viewBox="0 0 29 29" fill="none" xmlns="http://www.w3.org/2000/svg">
<path d="M24.265 16V22.435C24.265 23.716 23.7561 24.9445 22.8503 25.8503C21.9445 26.7561 20.716 27.265 19.435 27.265H6.56499C5.28399 27.265 4.05546 26.7561 3.14966 25.8503C2.24386 24.9445 1.73499 23.716 1.73499 22.435V9.56499C1.73499 8.28399 2.24386 7.05546 3.14966 6.14966C4.05546 5.24386 5.28399 4.73499 6.56499 4.73499H13" stroke="#1D1D1B" stroke-width="2" stroke-linecap="round" stroke-linejoin="round"/>
<path d="M23.9694 1.67142L20.4905 5.15039L23.8528 8.51268L27.3317 5.03372L23.9694 1.67142Z" stroke="#1D1D1B" stroke-width="2" stroke-linecap="round" stroke-linejoin="round"/>
<path d="M23.8599 8.51497L17.2149 15.16L13.8099 15.205L13.8549 11.785L20.4999 5.15497L23.8599 8.51497Z" stroke="#1D1D1B" stroke-width="2" stroke-linecap="round" stroke-linejoin="round"/>
</svg>
