<svg width="36" height="36" viewBox="0 0 36 36" fill="none" xmlns="http://www.w3.org/2000/svg">
<path fill-rule="evenodd" clip-rule="evenodd" d="M22.8174 19.8192C23.1241 19.124 23.2955 18.3502 23.2955 18.0021C23.2955 14.9842 20.9509 12.5374 18.0591 12.5374C15.1674 12.5374 12.8228 14.9842 12.8228 18.0021C12.8228 21.0198 15.441 22.9996 18.0591 22.9996C19.7338 22.9996 21.2245 22.1805 22.1807 20.9051C22.4313 20.5716 22.6461 20.2073 22.8174 19.8192ZM18.0591 20.2674C18.7136 20.2674 19.312 20.0165 19.7721 19.6016C20.3271 19.1013 20.5713 18.3609 20.5713 18.0021C20.5713 16.4931 19.5063 15.2697 18.0591 15.2697C16.612 15.2697 15.4285 16.4911 15.4285 18C15.4285 19.0419 16.612 20.2674 18.0591 20.2674Z" fill="white"/>
<path fill-rule="evenodd" clip-rule="evenodd" d="M1.40408 18.3502C1.38363 18.3249 1.42454 18.3768 1.40408 18.3502C1.24404 18.1313 1.24807 17.8709 1.4048 17.6494C1.41629 17.6332 1.42799 17.6163 1.43984 17.5991C6.14693 10.727 11.9841 7.07143 18.0182 7.07143C24.046 7.07143 29.878 10.7171 34.58 17.5755C34.6692 17.7056 34.7142 17.8393 34.7142 17.9994C34.7142 18.1673 34.6619 18.3084 34.568 18.445C29.8673 25.2903 24.0405 28.9286 18.0182 28.9286C11.9688 28.9286 6.11629 25.2557 1.40408 18.3502ZM5.06448 17.1675C4.67749 17.6486 4.67749 18.35 5.06446 18.8312C9.09529 23.8427 13.6339 26.1963 18.0182 26.1963C22.4026 26.1963 26.9412 23.8427 30.972 18.8312C31.359 18.35 31.359 17.6486 30.972 17.1675C26.9412 12.1561 22.4026 9.80374 18.0182 9.80374C13.6339 9.80374 9.09529 12.1561 5.06448 17.1675Z" fill="white"/>
</svg>
