<svg width="18" height="18" viewBox="0 0 18 18" fill="none" xmlns="http://www.w3.org/2000/svg">
<path d="M5.96641 16.5625H2.125C1.94267 16.5625 1.7678 16.4901 1.63887 16.3611C1.50994 16.2322 1.4375 16.0573 1.4375 15.875V12.0336C1.43719 11.9443 1.45449 11.8558 1.4884 11.7733C1.52232 11.6907 1.57219 11.6156 1.63516 11.5523L11.9477 1.23983C12.0116 1.17487 12.0879 1.12329 12.172 1.08807C12.2561 1.05286 12.3463 1.03473 12.4375 1.03473C12.5287 1.03473 12.6189 1.05286 12.703 1.08807C12.7871 1.12329 12.8634 1.17487 12.9273 1.23983L16.7602 5.07264C16.8251 5.13661 16.8767 5.21287 16.9119 5.29696C16.9471 5.38106 16.9653 5.47132 16.9653 5.56249C16.9653 5.65365 16.9471 5.74391 16.9119 5.82801C16.8767 5.91211 16.8251 5.98836 16.7602 6.05233L6.44766 16.3648C6.38438 16.4278 6.3093 16.4777 6.22672 16.5116C6.14414 16.5455 6.05568 16.5628 5.96641 16.5625V16.5625Z" stroke="#919294" stroke-width="2" stroke-linecap="round" stroke-linejoin="round"/>
<path d="M9.6875 3.5L14.5 8.3125" stroke="#919294" stroke-width="2" stroke-linecap="round" stroke-linejoin="round"/>
<path d="M12.0938 5.90625L3.84375 14.1562" stroke="#919294" stroke-linecap="round" stroke-linejoin="round"/>
<path d="M6.20703 16.5195L1.48047 11.793" stroke="#919294" stroke-width="2" stroke-linecap="round" stroke-linejoin="round"/>
</svg>
